<?xml version="1.0" standalone="no"?>
<!DOCTYPE svg PUBLIC "-//W3C//DTD SVG 20010904//EN"
 "http://www.w3.org/TR/2001/REC-SVG-20010904/DTD/svg10.dtd">
<svg version="1.0" xmlns="http://www.w3.org/2000/svg"
 width="200.000000pt" height="200.000000pt" viewBox="0 0 200.000000 200.000000"
 preserveAspectRatio="xMidYMid meet">

<g transform="translate(0.000000,200.000000) scale(0.100000,-0.100000)"
fill="#FFF" stroke="none">
<path d="M516 1604 c-34 -33 -8 -210 40 -278 8 -11 14 -23 14 -26 0 -3 -28 -5
-63 -5 -76 -1 -129 -25 -163 -74 -67 -99 5 -203 159 -226 l44 -7 7 -67 c19
-209 158 -426 324 -508 121 -59 257 -25 375 93 103 104 174 248 199 403 11 72
15 81 34 81 43 0 127 35 160 66 29 27 34 38 34 79 0 100 -71 155 -198 155
l-72 0 30 59 c47 94 59 251 18 259 -9 2 -48 -26 -89 -63 -40 -36 -97 -82 -126
-102 l-52 -36 -63 13 c-80 17 -167 18 -248 1 -59 -13 -69 -12 -100 4 -32 16
-104 71 -207 160 -38 32 -43 34 -57 19z m109 -134 c33 -28 75 -61 92 -73 32
-21 42 -37 25 -37 -5 0 -27 -16 -49 -35 -23 -19 -43 -35 -46 -35 -12 0 -67
102 -81 151 -29 96 -23 99 59 29z m802 5 c-7 -46 -51 -147 -72 -165 -8 -7 -26
1 -58 26 -26 20 -47 40 -47 43 0 4 26 26 59 49 32 24 69 54 81 68 34 36 44 30
37 -21z m-328 -106 c126 -29 232 -113 271 -215 39 -103 27 -291 -27 -422 l-14
-34 -41 37 c-22 21 -66 49 -97 64 -52 24 -66 26 -191 26 -126 0 -139 -2 -193
-27 -32 -15 -76 -42 -98 -59 l-39 -31 -16 38 c-116 278 -32 530 205 611 72 25
166 29 240 12z m-504 -139 c4 -6 4 -17 1 -25 -4 -11 -13 -12 -40 -4 -45 12
-116 -13 -116 -42 0 -23 9 -24 46 -4 32 17 53 19 72 7 9 -7 10 -20 1 -65 -11
-54 -13 -56 -38 -51 -79 18 -101 26 -126 50 -22 21 -26 31 -21 56 7 35 31 66
61 79 29 12 153 11 160 -1z m992 -16 c35 -26 52 -86 33 -109 -19 -22 -77 -51
-121 -59 -41 -7 -43 -5 -54 68 l-7 46 32 0 c17 0 40 -5 51 -11 12 -6 28 -8 37
-4 15 5 13 10 -12 32 -26 22 -37 25 -83 21 -29 -3 -53 -4 -53 -2 0 1 -3 9 -6
17 -7 20 17 26 93 23 45 -1 71 -8 90 -22z m-507 -425 c36 -5 84 -19 107 -30
44 -21 113 -83 113 -101 0 -6 -16 -32 -35 -58 -134 -182 -314 -211 -460 -73
-46 44 -105 121 -105 139 0 15 60 68 101 90 35 18 138 42 184 43 17 1 59 -4
95 -10z"/>
<path d="M1222 1193 c-19 -7 -42 -58 -42 -93 0 -17 7 -47 15 -66 12 -30 19
-35 42 -32 35 4 53 38 53 99 0 32 -6 55 -21 73 -21 27 -25 28 -47 19z"/>
<path d="M790 1161 c-17 -33 -12 -116 8 -134 21 -20 37 -11 52 28 12 31 5 91
-12 113 -15 18 -36 15 -48 -7z"/>
<path d="M829 673 c-11 -31 1 -78 21 -78 20 0 32 47 21 78 -6 15 -15 27 -21
27 -6 0 -15 -12 -21 -27z"/>
<path d="M1134 676 c-9 -37 -1 -81 16 -81 22 0 36 49 22 80 -15 31 -30 32 -38
1z"/>
</g>
</svg>
